<?xml version="1.0" encoding="utf-8" ?>
<svg xmlns="http://www.w3.org/2000/svg" xmlns:xlink="http://www.w3.org/1999/xlink" width="512" height="512">
	<path d="M355.722 415.503C335.451 423.734 312.777 430.049 290.823 430.951L290.911 470.95C290.915 472.241 291.109 473.774 290.788 475.013L227.476 475.216C227.982 473.316 227.815 471.128 227.819 469.167L227.895 428.361C226.892 427.8 225.615 427.76 224.5 427.524L204.875 421.766C129.454 396.78 75.0387 324.031 68.0915 245.574C67.6604 240.706 67.8274 235.714 67.8332 230.827L67.8717 207.851C67.9211 178.454 59.0301 147.815 39.8887 125.111C34.3254 118.513 28.1653 113.182 21.4815 107.773C32.7203 102.357 50.4709 97.9638 62.5079 97.5808L75.9568 97.6107C77.659 97.6507 79.4245 97.9158 81.1093 97.8432L39.3768 35.3558C37.6095 32.5583 40.4114 32.6362 42.5062 32.6141L51.2586 32.5672L142.609 32.5478C148.193 32.5487 153.904 32.3076 159.465 32.7758C203.001 36.4414 244.411 65.911 263.51 104.843C274.043 126.314 276.207 144.511 276.229 167.6L276.236 192.781C276.234 198.128 275.867 203.743 276.611 209.031C280.202 234.576 301.201 251.947 326.407 252.044L487.517 251.939C486.834 253.159 486.837 255.337 486.5 256.781L482.504 272.906C464.837 336.395 416.588 390.523 355.722 415.503ZM138.924 97.7978C123.844 99.5999 112.178 107.643 98.552 110.124C117.219 127.085 132.057 167.729 133.152 192.809L133.183 227.634C133.151 267.995 147.311 303.087 177.374 330.895C220.009 370.334 282.441 378.295 334.65 354.472C346.706 349.078 378.959 328.906 385.8 316.817C386.052 316.371 386.495 316.105 386.908 315.824L324.21 315.763C268.92 315.742 222.782 277.698 214.213 222.5C213.477 217.76 212.76 213.068 212.723 208.262L212.726 177.068C212.73 171.692 212.955 166.193 212.633 160.834C210.88 131.597 192.666 106.984 163.762 99.9568C156.868 98.2806 146.117 96.5732 138.924 97.7978Z"/>
	<path d="M140.311 140.411C128.367 141.26 117.01 132.269 118.634 119.722L118.7 119.25C120.029 109.214 127.397 102.455 137.382 101.345C166.492 100.01 165.192 137.981 140.311 140.411Z"/>
</svg>
